<?xml version="1.0" encoding="UTF-8" standalone="no" ?>
<!DOCTYPE svg PUBLIC "-//W3C//DTD SVG 1.1//EN" "http://www.w3.org/Graphics/SVG/1.1/DTD/svg11.dtd">
<svg xmlns="http://www.w3.org/2000/svg" xmlns:xlink="http://www.w3.org/1999/xlink" version="1.1" width="512" height="512" viewBox="0 0 512 512" xml:space="preserve">
<desc>Created with Fabric.js 5.3.0</desc>
<defs>
</defs>
<g transform="matrix(1 0 0 1 256 256)" id="SzUBz-OIGdZfYFRSHhSZs"  >
<path style="stroke: none; stroke-width: 1; stroke-dasharray: none; stroke-linecap: butt; stroke-dashoffset: 0; stroke-linejoin: miter; stroke-miterlimit: 4; fill: rgb(255,255,255); fill-rule: nonzero; opacity: 1;"  transform=" translate(-255.9820242433, -796.389297203)" d="M 268.25 587.46875 C 202.07271 587.22346 134.13236 616.20683 95.355313 670.7818 C 55.001423 726.7481 44.829251 800.6318 58.1875 867.375 C 67.570204 911.92239 93.624639 954.02262 133.51103999999998 977.30023 C 179.00773999999998 1004.8142 234.48368 1008.9329 286.33563 1002.9978000000001 C 312.35953 999.8429700000002 337.97929999999997 992.8903200000001 361.78125 982.0000000000001 C 361.78125 965.5520800000002 361.78125 949.1041700000001 361.78125 932.6562500000001 C 308.28821 954.8359700000001 247.13341 965.6418400000001 190.28125 949.7187500000001 C 150.33777 938.4609600000001 117.87159 904.0317800000001 109.08609 863.4712700000001 C 98.598379 822.1825800000001 101.14626 777.7828500000002 114.4375 737.5000000000001 C 128.67148 697.2431000000001 159.53454 662.4163600000002 200.05948999999998 647.7690000000001 C 240.49621 631.9401400000002 286.94930999999997 630.4903100000001 328.21875 644.1562500000001 C 365.00045 657.6475400000002 394.97465 689.4001300000001 404.15216 727.4608200000001 C 413.69282999999996 762.2972400000001 412.59404 800.7823200000001 399.11744999999996 834.3166200000002 C 393.17574 848.44671 379.74721 862.85844 363 859.625 C 353.73359 858.13152 346.49811 850.27452 345.59375 841 C 340.65034 817.63464 346.7206 793.74928 346.32879 770.1321 C 347.60290000000003 746.2436700000001 348.87211 722.3549 350.1875 698.46875 C 312.47973 687.17824 271.74889 679.91646 232.84375 689.03125 C 193.45362 699.82945 163.23934 735.27553 156.64722999999998 775.43154 C 150.89094999999998 805.32858 153.39156999999997 837.6207300000001 167.21874999999997 864.8125 C 180.00448999999998 888.12014 204.75414999999998 904.71169 231.59014999999997 905.74105 C 261.19867999999997 908.5204699999999 292.73913 896.1599199999999 309.5625 871.15625 C 320.51581 896.15563 349.82796 910.37599 376.46875 905.3125 C 408.24962 900.95173 433.89486 876.08097 445.09375 846.90625 C 463.60873 803.65378 462.7735 753.85569 449.9375 709.15625 C 434.63193 659.82053 396.54347 617.60552 347.37801 600.42525 C 322.19587 590.95075 295.15998 586.93979 268.25 587.46875 z M 265.125 730.875 C 275.58994 730.8414 286.09657 731.69206 296.25 733.90625 C 293.27558 767.99081 296.92166 803.67896 283.82007 835.96536 C 277.54958 849.6017300000001 263.84373999999997 860.20243 248.5625 860 C 232.5675 861.56795 214.79955999999999 852.1678899999999 211.06323 835.67484 C 203.91599 813.79 206.02516 789.5673400000001 212.5625 767.84375 C 219.8888 747.88729 238.53332 731.34598 260.5 731.125 C 262.0378 730.9918 263.58168 730.90737 265.125 730.875 z" stroke-linecap="round" />
</g>
</svg>