<?xml version="1.0" encoding="UTF-8"?>
<!-- Generated by Pixelmator Pro 3.3.8 -->
<svg width="24" height="24" viewBox="0 0 24 24" xmlns="http://www.w3.org/2000/svg">
    <path id="Path" fill="#ffffff" stroke="none" d="M 12 1.999001 C 17.524 1.999001 22.002001 6.477001 22.002001 12.001 C 22.002001 17.524 17.524 22.002001 12 22.002001 C 6.476 22.002001 1.998 17.524 1.998 12.001 C 1.998 6.477001 6.476 1.999001 12 1.999001 Z M 11.996 10.249 C 11.488728 10.249693 11.062336 10.630093 11.004 11.134 L 10.997 11.25 L 11 16.752001 L 11.007 16.868999 C 11.06536 17.373882 11.493148 17.754683 12.001392 17.754171 C 12.509636 17.75366 12.936656 17.371998 12.994 16.867001 L 13 16.75 L 12.997 11.249 L 12.99 11.132 C 12.930172 10.628525 12.503017 10.2495 11.996 10.25 Z M 12 6.5 C 11.308816 6.5 10.7485 7.060316 10.7485 7.751499 C 10.7485 8.442684 11.308816 9.003 12 9.003 C 12.691184 9.003 13.2515 8.442684 13.2515 7.751499 C 13.2515 7.060316 12.691184 6.5 12 6.5 Z"/>
</svg>
