<?xml version="1.0" encoding="UTF-8"?>
<!-- Generated by Pixelmator Pro 3.3.8 -->
<svg width="24" height="24" viewBox="0 0 24 24" xmlns="http://www.w3.org/2000/svg">
    <path id="Path" fill="#ffffff" stroke="none" d="M 15.25 2 C 15.624785 2.000015 15.942029 2.276697 15.993 2.648001 L 16 2.75 L 16 5.075001 C 17.474503 5.376806 18.626207 6.530087 18.926001 8.005 L 21.25 8.005 C 21.644283 8.005121 21.971151 8.310513 21.998026 8.70388 C 22.0249 9.097247 21.742603 9.444257 21.351999 9.498 L 21.25 9.505 L 19 9.504 L 19 11.254 L 21.25 11.254 C 21.62545 11.254152 21.94294 11.531902 21.993 11.904 L 22 12.004 C 22.000484 12.379166 21.72368 12.696978 21.351999 12.748 L 21.25 12.755 L 19 12.754 L 19 14.504 L 21.25 14.504 C 21.62545 14.504152 21.94294 14.781902 21.993 15.154 L 22 15.254 C 22.000484 15.629166 21.72368 15.946978 21.351999 15.998 L 21.25 16.004999 L 18.924 16.004999 C 18.620699 17.475342 17.470757 18.623713 16 18.924999 L 16 21.25 C 15.999879 21.644283 15.694488 21.971151 15.30112 21.998026 C 14.907753 22.0249 14.560743 21.742603 14.507 21.351999 L 14.5 21.25 L 14.5 18.999001 L 12.749 18.999001 L 12.75 21.25 C 12.749984 21.624786 12.473304 21.94203 12.102 21.993 L 12 22 C 11.625215 21.999985 11.307971 21.723303 11.257 21.351999 L 11.25 21.25 L 11.249 18.999001 L 9.5 18.999001 L 9.5 21.25 C 9.499984 21.624786 9.223304 21.94203 8.852 21.993 L 8.75 22 C 8.375215 21.999985 8.057971 21.723303 8.007 21.351999 L 8 21.25 L 8 18.924999 C 6.527307 18.623573 5.376427 17.472692 5.075 16 L 2.75 16 C 2.355716 15.999879 2.028848 15.694488 2.001974 15.30112 C 1.9751 14.907753 2.257396 14.560743 2.648 14.507 L 2.75 14.5 L 5 14.499 L 5 12.749 L 2.75 12.75 C 2.375214 12.749984 2.057971 12.473304 2.007 12.102 L 2 12 C 2.000016 11.625215 2.276696 11.307971 2.648 11.257 L 2.75 11.25 L 5 11.249 L 5 9.499 L 2.75 9.5 C 2.375214 9.499984 2.057971 9.223304 2.007 8.852 L 2 8.75 C 2.000016 8.375215 2.276696 8.057971 2.648 8.007 L 2.75 8 L 5.075 7.999001 C 5.376783 6.526695 6.527591 5.37628 8 5.075001 L 8 2.75 C 8.000121 2.355717 8.305512 2.028849 8.69888 2.001974 C 9.092247 1.9751 9.439257 2.257397 9.493 2.648001 L 9.5 2.75 L 9.5 4.999001 L 11.249 4.999001 L 11.25 2.75 C 11.250016 2.375214 11.526696 2.05797 11.898 2.007 L 12 2 C 12.374785 2.000015 12.692029 2.276697 12.743 2.648001 L 12.75 2.75 L 12.749 4.999001 L 14.5 4.999001 L 14.5 2.75 C 14.499928 2.412754 14.724965 2.116932 15.05 2.027 L 15.148 2.007 L 15.25 2 Z M 12.005 9.005 C 10.348145 9.005 9.005 10.348145 9.005 12.005 C 9.005 13.661854 10.348145 15.005 12.005 15.005 C 13.661854 15.005 15.005 13.661854 15.005 12.005 C 15.005 10.348145 13.661854 9.005 12.005 9.005 Z M 12.005 10.505 C 12.833427 10.505 13.505 11.176573 13.505 12.005 C 13.505 12.833427 12.833427 13.505 12.005 13.505 C 11.176573 13.505 10.505 12.833427 10.505 12.005 C 10.505 11.176573 11.176573 10.505 12.005 10.505 Z"/>
</svg>
