<?xml version="1.0" encoding="UTF-8"?>
<!-- Generated by Pixelmator Pro 3.3.8 -->
<svg width="1080" height="1080" viewBox="0 0 1080 1080" xmlns="http://www.w3.org/2000/svg">
    <g id="1bd3a6ab-73e3-44c1-b1a4-981ec69ce9e7">
        <path id="Path" fill="#ffffff" stroke="none" visibility="hidden" d="M 0 0 L 1080 0 L 1080 1080 L 0 1080 Z"/>
    </g>
    <g id="3a2dd756-3e03-4913-b82f-15e56090fc31"/>
    <g id="Group">
        <g id="g1">
            <g id="g2">
                <path id="path1" fill="#ffffff" stroke="none" d="M 720.548462 539.999573 C 674.405396 539.999573 629.78833 519.396729 594.866821 482.006531 C 560.910278 445.536377 540.172852 396.901978 536.514587 345.103271 C 532.609497 289.848083 549.464355 239.036865 583.959473 202.005676 C 618.45459 164.974487 666.684937 145 720.548462 145 C 774.030457 145 822.395569 165.333496 856.778503 202.274963 C 891.498108 239.5755 908.397766 290.296997 904.492493 345.080811 L 904.492493 345.080811 C 900.74469 396.946899 880.029541 445.558716 846.14032 481.98407 C 811.308594 519.396729 766.71405 539.999573 720.548462 539.999573 Z M 868.67334 342.499756 L 868.67334 342.499756 Z"/>
            </g>
            <g id="g3">
                <path id="path2" fill="#ffffff" stroke="none" d="M 1016.416504 934.999084 L 424.702789 934.999084 C 405.422211 935.102295 387.184204 926.256836 375.32785 911.052246 C 362.756042 894.575684 358.407654 873.25531 363.522705 853.171387 C 382.419891 777.291077 429.236359 714.360474 498.899841 671.202271 C 560.730835 632.914185 639.438904 611.817627 720.548462 611.817627 C 803.251465 611.817627 879.894897 632.016479 942.084778 670.282043 C 1011.905579 713.21582 1058.789185 776.505554 1077.596558 853.30603 C 1082.64978 873.403809 1078.253296 894.708862 1065.656982 911.16449 C 1053.813354 926.297607 1035.633057 935.097717 1016.416504 934.999084 Z"/>
            </g>
            <g id="g4">
                <path id="path3" fill="#ffffff" stroke="none" d="M 296.350372 548.976807 C 217.372894 548.976807 147.933838 475.542847 141.492584 385.298889 C 138.305695 339.065918 152.714172 296.311707 181.890274 264.958679 C 210.752197 233.9198 251.46405 216.818115 296.350372 216.818115 C 341.236694 216.818115 381.634369 234.009644 410.653351 265.228027 C 440.053894 296.828003 454.417511 339.492493 451.051025 385.343689 C 444.609863 475.565186 375.193176 548.976807 296.350372 548.976807 Z"/>
            </g>
            <g id="g5">
                <path id="path4" fill="#ffffff" stroke="none" d="M 443.712128 619.538086 C 404.23465 600.237061 352.996948 590.586365 296.372833 590.586365 C 230.25531 590.586365 166.04541 607.822754 115.548302 639.108521 C 58.29586 674.635986 19.783394 726.367432 4.230235 788.826782 C -0.380858 807.027222 3.57868 826.337036 14.980526 841.254028 C 25.803486 855.148071 42.457024 863.238586 60.068821 863.158569 L 309.187866 863.158569 C 317.86499 863.157288 325.299622 856.950806 326.850616 848.413391 C 327.097534 846.999451 327.411682 845.585571 327.770782 844.194031 C 346.802612 767.752686 391.397156 703.161255 457.290283 656.075562 C 462.21405 652.526245 465.011353 646.729675 464.726105 640.666748 C 464.440826 634.60376 461.111603 629.095459 455.876373 626.02417 C 452.352783 623.959412 448.313019 621.78241 443.712128 619.538086 Z"/>
            </g>
        </g>
    </g>
</svg>
