<?xml version="1.0" encoding="UTF-8"?>
<!-- Generated by Pixelmator Pro 3.3.8 -->
<svg width="16" height="16" viewBox="0 0 16 16" xmlns="http://www.w3.org/2000/svg">
    <path id="Path" fill="#ffffff" stroke="none" d="M 3 2 C 3 0.895431 3.895431 0 5 0 L 11 0 C 12.104569 0 13 0.895431 13 2 L 13 14 C 13 15.104569 12.104569 16 11 16 L 5 16 C 3.895431 16 3 15.104569 3 14 L 3 2 Z M 9 13 C 9 12.447715 8.552285 12 8 12 C 7.447715 12 7 12.447715 7 13 C 7 13.552285 7.447715 14 8 14 C 8.552285 14 9 13.552285 9 13 Z"/>
</svg>
