<?xml version="1.0" encoding="UTF-8"?>
<!-- Generated by Pixelmator Pro 3.3.8 -->
<svg width="800" height="800" viewBox="0 0 800 800" xmlns="http://www.w3.org/2000/svg">
    <path id="Path" fill="#ffffff" stroke="none" d="M 353.274994 573.700012 L 323.974976 493.874969 C 323.974976 493.874969 276.174988 547.150024 204.699997 547.150024 C 141.274994 547.150024 96.375 492.075012 96.375 403.924988 C 96.375 291.149994 153.274994 250.799988 209.25 250.799988 C 289.850006 250.799988 315.375 303.024994 337.375 370.100006 L 366.399994 461.775024 C 395.425018 550.799988 450.524994 622.299988 609.224976 622.299988 C 722.924988 622.299988 800 587.525024 800 495.599976 C 800 421.400024 757.575012 382.824982 678.900024 364.5 L 620.299988 351.725006 C 579.700012 342.450012 567.700012 325.924988 567.700012 298.449982 C 567.700012 267.224976 592.325012 248.850037 632.799988 248.850037 C 676.975037 248.850037 700.400024 265.375 704.424988 304.850006 L 795.950012 293.75 C 788.525024 211.225037 731.349976 177.349976 637.875 177.349976 C 555.175049 177.349976 474.574982 208.625 474.574982 308.475006 C 474.574982 370.975006 504.675018 410.400024 580.700012 428.649994 L 642.799988 443.375 C 689.424988 454.449982 704.899963 473.974976 704.899963 500.549988 C 704.899963 534.525024 671.824951 548.575012 609.200012 548.575012 C 516.625 548.575012 478.100006 500 456.099976 432.950012 L 426.000031 341.274994 C 387.474976 222.149963 325.875 178 203.725006 178 C 71.550003 177.599976 -0.05 262.625 -0.05 407.800018 C -0.05 547.125 71.550003 622.674988 200.075012 622.674988 C 303.574982 622.674988 353.200012 574.100037 353.200012 574.100037 Z"/>
</svg>
