<svg xmlns="http://www.w3.org/2000/svg" shape-rendering="geometricPrecision" text-rendering="geometricPrecision" image-rendering="optimizeQuality" fill-rule="evenodd" clip-rule="evenodd" viewBox="0 0 512 512.084"><path fill="#fff" fill-rule="nonzero" d="M256.021 48.004c-114.885.042-207.976 93.258-207.893 208.101a207.616 207.616 0 0031.878 110.592l-20.002 85.34 85.341-20.001c97.216 61.214 225.644 32.044 286.857-65.173 61.214-97.216 32.044-225.643-65.172-286.857-33.211-20.96-71.715-32.044-111.009-32.002zM137.22 455.622l-34.378 8 5.459 23.377 25.293-5.876a252.941 252.941 0 0060.839 23.586l5.75-23.294a230.678 230.678 0 01-62.797-25.96l-.166.167zM25.21 403.617l23.377 5.418 8.001-34.379a229.975 229.975 0 01-25.794-62.963L7.5 317.444c5.208 21.21 13.168 41.67 23.586 60.838l-5.876 25.335zm56.338 64.838L32.002 480.04l11.543-49.546-23.377-5.459-11.542 49.546c-3.042 12.918 5 25.835 17.876 28.836 3.585.833 7.334.833 10.959 0l49.504-11.376-5.417-23.586zm139.72-441.87a234.076 234.076 0 0169.506 0l3.584-23.71a257.338 257.338 0 00-76.715 0l3.625 23.71zm253.98 97.092l-20.543 12.334a232.016 232.016 0 0126.585 64.256l23.294-5.751a255.444 255.444 0 00-29.336-70.839zm-405.993-5.251a233.093 233.093 0 0149.17-49.17L104.007 49.92a256.047 256.047 0 00-54.087 54.089l19.335 14.417zm324.36-49.17a233.07 233.07 0 0149.17 49.17l19.336-14.417a256.028 256.028 0 00-54.088-54.089l-14.418 19.336zm49.172 324.402c-13.834 18.752-30.42 35.294-49.171 49.129l14.251 19.335a257.774 257.774 0 0054.255-54.088l-19.335-14.376zm-152.013 91.799a234.143 234.143 0 01-69.506 0l-3.584 23.752a257.338 257.338 0 0076.715 0l-3.625-23.752zm213.768-167.972l-23.294-5.75a232.492 232.492 0 01-26.586 64.338l20.543 12.376c13.335-22.044 23.212-46.004 29.337-70.964zm-16.502-61.464c0 11.626-.875 23.251-2.625 34.752l23.71 3.626a257.338 257.338 0 000-76.715l-23.71 3.584a231.117 231.117 0 012.625 34.753zm-99.675 219.227l-12.334-20.543a231.998 231.998 0 01-64.255 26.585l5.75 23.294a255.413 255.413 0 0070.839-29.336zM24.002 256.021c0-11.627.875-23.252 2.583-34.753l-23.71-3.584a257.338 257.338 0 000 76.715l23.71-3.626a236.676 236.676 0 01-2.583-34.752zm12.792-132.344a256.22 256.22 0 00-29.335 70.88l23.294 5.751a232.52 232.52 0 0126.585-64.338l-20.544-12.293zM317.443 7.458l-5.751 23.295a232.489 232.489 0 0164.338 26.585l12.377-20.543c-22.002-13.293-45.962-23.169-70.964-29.337zm-122.885 0l5.75 23.295a232.502 232.502 0 00-64.338 26.585l-12.334-20.543a257 257 0 0170.922-29.337z"/></svg>